<svg width="50" height="50" viewBox="0 0 50 50" fill="none" xmlns="http://www.w3.org/2000/svg">
<g clip-path="url(#clip0_74_743)">
<path d="M25 50C38.8071 50 50 38.8071 50 25C50 11.1929 38.8071 0 25 0C11.1929 0 0 11.1929 0 25C0 38.8071 11.1929 50 25 50Z" fill="white"/>
<path d="M12.3962 14.3725C12.3962 13.334 12.3962 12.2955 12.3962 11.257C11.4521 11.257 10.4135 11.257 9.46942 11.3514C9.46942 20.4148 9.46942 29.5727 9.46942 38.6362C10.5079 38.6362 11.5465 38.6362 12.6794 38.6362C12.6794 35.2374 12.6794 31.8386 12.6794 28.4398C14.0011 30.0448 15.8894 31.0833 17.9664 31.5553C20.3267 32.1218 22.6869 31.6497 24.8584 30.6112C24.0087 29.9503 23.159 29.2895 22.3093 28.5342C21.4596 28.4398 20.6099 28.9118 19.6658 28.8174C17.3999 28.9118 14.9453 27.7789 13.8123 25.7963C12.6794 24.0969 12.585 21.9254 12.7738 19.9428C12.9626 17.8658 14.19 15.7887 15.9838 14.7502C18.4385 13.4284 21.6484 13.5228 23.9143 15.2222C26.9354 17.5825 27.5019 22.1142 25.7081 25.4186C26.4634 26.1739 27.4075 26.7404 28.3516 27.2124C30.9951 22.9639 30.4286 16.7328 26.5578 13.334C22.5925 9.55759 15.6061 10.0296 12.3962 14.3725ZM25.7081 11.729C26.6522 12.3899 27.5019 13.1452 28.2572 14.0893C30.8063 13.4284 33.733 13.9005 35.6212 15.7887C37.2262 17.4881 37.6983 20.0372 37.415 22.3031C37.2262 24.0025 36.3765 25.7019 34.866 26.7404C31.656 29.1007 26.4634 28.3454 24.3863 24.8522C22.9702 22.3975 23.0646 19.2819 24.5752 16.9216C23.9143 16.0719 23.0646 15.4111 22.0261 14.939C19.1937 19.0931 19.6658 25.513 23.6311 28.8174C27.5019 32.2162 34.1107 31.7442 37.415 27.7789C37.415 29.8559 37.5095 32.0274 36.1877 33.8212C34.7715 35.8038 32.128 36.3703 29.8622 36.1815C27.4075 35.9926 25.1416 34.6709 23.3478 33.0659C22.6869 33.8212 22.1205 34.5765 21.4596 35.3318C23.8199 37.5976 27.0299 39.1082 30.3342 39.2026C33.0721 39.297 35.9989 38.5417 37.9815 36.5591C39.8697 34.7653 40.625 32.0274 40.625 29.4783C40.625 23.436 40.625 17.3937 40.625 11.3514C39.5865 11.3514 38.6424 11.3514 37.6039 11.3514C37.6039 12.3899 37.6039 13.5229 37.6039 14.5614C34.9604 10.7849 29.6734 9.84083 25.7081 11.729Z" fill="#333333"/>
<path d="M12.3961 14.3726C15.6061 10.0297 22.4981 9.65201 26.4634 13.2396C30.3342 16.6384 30.9007 22.8695 28.2572 27.118C27.3131 26.7404 26.369 26.0795 25.6137 25.3242C27.4075 22.0198 26.841 17.4881 23.8199 15.1278C21.6484 13.4284 18.344 13.2396 15.8894 14.6558C14.0011 15.6943 12.8682 17.7714 12.6794 19.8484C12.4906 21.831 12.6794 24.0025 13.7179 25.7019C14.9452 27.6845 17.3055 28.8174 19.5714 28.723C20.4211 28.723 21.2708 28.3454 22.2149 28.4398C23.0646 29.1007 23.8199 29.8559 24.764 30.5168C22.6869 31.5553 20.2323 32.0274 17.872 31.4609C15.7949 31.0833 13.9067 29.9504 12.585 28.3454C12.585 31.7442 12.585 35.143 12.585 38.5417C11.5465 38.5417 10.5079 38.5417 9.375 38.5417C9.375 29.4783 9.375 20.3204 9.375 11.257C10.3191 11.1626 11.3576 11.1626 12.3017 11.1626C12.3961 12.2011 12.3961 13.334 12.3961 14.3726Z" fill="#333333"/>
<path d="M25.7081 11.7289C29.6733 9.84067 34.9603 10.7848 37.6038 14.4668C37.6038 13.4283 37.6038 12.2954 37.6038 11.2568C38.6424 11.2568 39.5865 11.2568 40.625 11.2568C40.625 17.2991 40.625 23.3414 40.625 29.3837C40.625 31.9328 39.8697 34.6707 37.9815 36.4645C35.9988 38.4472 33.0721 39.2025 30.3342 39.108C27.0298 39.0136 23.8198 37.5975 21.4596 35.2372C22.1204 34.4819 22.6869 33.7266 23.3478 32.9713C25.1416 34.5763 27.4075 35.8981 29.8621 36.0869C32.128 36.2757 34.8659 35.7092 36.1877 33.7266C37.415 32.0272 37.415 29.7614 37.415 27.6843C34.1106 31.6496 27.5019 32.1216 23.631 28.7228C19.6658 25.4185 19.1937 18.9985 22.026 14.8444C22.9701 15.3165 23.8198 15.9774 24.5751 16.8271C23.159 19.1873 22.9701 22.3973 24.3863 24.7576C26.3689 28.3452 31.6559 29.1005 34.8659 26.6458C36.2821 25.6073 37.1318 23.9079 37.415 22.2085C37.6982 19.9426 37.3206 17.3935 35.6212 15.6941C33.733 13.8059 30.8062 13.3339 28.2572 13.9947C27.5019 13.145 26.6522 12.3898 25.7081 11.7289Z" fill="#E84A1D"/>
</g>
<defs>
<clipPath id="clip0_74_743">
<rect width="50" height="50" fill="white"/>
</clipPath>
</defs>
</svg>
